<svg width="176" height="35" viewBox="0 0 176 35" fill="none" xmlns="http://www.w3.org/2000/svg">
<g id="logo-beautypalace">
<g id="Beautypalace">
<path d="M20.2969 4.35938H18.1094C16.9427 4.35938 16.3594 3.85938 16.3594 2.85938C16.3594 2.23438 16.599 1.70833 17.0781 1.28125C17.5573 0.84375 18.1406 0.625 18.8281 0.625H25.5938C27.6458 0.625 29.2292 1.07812 30.3438 1.98438C31.4583 2.88021 32.0156 4.16146 32.0156 5.82812C32.0156 7.26562 31.5938 8.55729 30.75 9.70312C29.9167 10.849 28.7969 11.6667 27.3906 12.1562C29.2969 13.0833 30.25 14.6771 30.25 16.9375C30.25 18.3854 29.8542 19.8073 29.0625 21.2031C28.2812 22.5885 27.2448 23.6979 25.9531 24.5312C24.2135 25.6562 21.5885 26.2188 18.0781 26.2188H15.7812L15.5938 26.6562C14.8646 28.2708 14.2917 29.4115 13.875 30.0781C13.4583 30.7448 12.9219 31.3802 12.2656 31.9844C10.526 33.5781 8.54167 34.375 6.3125 34.375C4.48958 34.375 2.98438 33.8333 1.79688 32.75C0.598958 31.6667 0 30.2865 0 28.6094C0 27.5365 0.255208 26.5365 0.765625 25.6094C1.27604 24.6927 1.96875 23.9792 2.84375 23.4688C3.97917 22.8125 5.52083 22.4844 7.46875 22.4844H12.9219L20.2969 4.35938ZM22.2812 10.2188L23.2188 10.2031C24.6771 10.2031 25.7812 9.86458 26.5312 9.1875C26.9271 8.83333 27.2552 8.375 27.5156 7.8125C27.7865 7.25 27.9219 6.72917 27.9219 6.25C27.9219 5.38542 27.5417 4.8125 26.7812 4.53125C26.4792 4.41667 25.8542 4.35938 24.9062 4.35938H24.6719L22.2812 10.2188ZM17.3125 22.4844H18.5781C20.8073 22.4844 22.5 22.099 23.6562 21.3281C24.3958 20.8385 24.9948 20.1667 25.4531 19.3125C25.9219 18.4583 26.1562 17.599 26.1562 16.7344C26.1562 15.7135 25.849 14.9948 25.2344 14.5781C24.6302 14.1615 23.5729 13.9531 22.0625 13.9531H20.7656L17.3125 22.4844ZM11.4062 26.2188H7.34375C5.30208 26.2188 4.28125 26.9479 4.28125 28.4062C4.28125 28.9896 4.5 29.4844 4.9375 29.8906C5.38542 30.2969 5.92708 30.5 6.5625 30.5C7.51042 30.5 8.41146 30.1198 9.26562 29.3594C10.1198 28.6094 10.8333 27.5625 11.4062 26.2188Z" fill="#8F158F"/>
<path d="M35.7344 17.375C35.7344 18.1562 36.3229 18.5469 37.5 18.5469H42.1406C43.4531 18.5469 44.1094 19.0104 44.1094 19.9375C44.1094 20.5729 43.875 21.0677 43.4062 21.4219C42.9479 21.776 42.3021 21.9531 41.4688 21.9531H37.0469C35.401 21.9531 34.1458 21.5469 33.2812 20.7344C32.4271 19.9219 32 18.7344 32 17.1719C32 15.1615 32.6771 13.4271 34.0312 11.9688C35.3958 10.5104 37.0156 9.78125 38.8906 9.78125C40.2552 9.78125 41.349 10.1406 42.1719 10.8594C43.0052 11.5677 43.4219 12.5052 43.4219 13.6719C43.4219 15.0781 42.849 16.1198 41.7031 16.7969C41.0677 17.1823 40.1198 17.375 38.8594 17.375H35.7344ZM36.4844 14.5312H38.2031C39.3177 14.5312 39.8594 14.2865 39.8281 13.7969C39.7969 13.2448 39.4375 12.9688 38.75 12.9688C37.7917 12.9688 37.0365 13.4896 36.4844 14.5312Z" fill="#8F158F"/>
<path d="M55.375 18.5469H57.0938C58.4062 18.5469 59.0625 19.0052 59.0625 19.9219C59.0625 20.5573 58.8281 21.0573 58.3594 21.4219C57.8906 21.776 57.2448 21.9531 56.4219 21.9531H54.4219C53.526 21.9531 52.9167 21.6042 52.5938 20.9062C51.8125 21.6042 51.0573 21.9531 50.3281 21.9531H48.5469C47.401 21.9531 46.474 21.5469 45.7656 20.7344C45.0677 19.9115 44.7188 18.8385 44.7188 17.5156C44.7188 15.5156 45.4062 13.7292 46.7812 12.1562C48.1667 10.5729 49.7292 9.78125 51.4688 9.78125C52.8021 9.78125 53.776 10.2448 54.3906 11.1719C54.9115 10.3906 55.5938 10 56.4375 10C56.8958 10 57.276 10.1458 57.5781 10.4375C57.8906 10.7292 58.0469 11.0885 58.0469 11.5156C58.0469 11.8073 57.9635 12.1562 57.7969 12.5625L57.625 12.9844L55.375 18.5469ZM49.7031 18.625H50.0938C50.9479 18.625 51.5156 18.276 51.7969 17.5781L52.8906 14.875C53.0365 14.5208 53.1094 14.224 53.1094 13.9844C53.1094 13.7031 52.9688 13.4583 52.6875 13.25C52.4167 13.0417 52.0885 12.9375 51.7031 12.9375C50.9427 12.9375 50.2031 13.3802 49.4844 14.2656C48.7656 15.151 48.4062 16.0677 48.4062 17.0156C48.4062 18.0885 48.8385 18.625 49.7031 18.625Z" fill="#8F158F"/>
<path d="M70.6875 18.5469H72.5C73.2188 18.5469 73.7292 18.6562 74.0312 18.875C74.3333 19.0833 74.4844 19.4323 74.4844 19.9219C74.4844 20.5573 74.25 21.0573 73.7812 21.4219C73.3229 21.776 72.6771 21.9531 71.8438 21.9531H69.0469C68.1719 21.9531 67.5885 21.6146 67.2969 20.9375C66.724 21.6146 66.0052 21.9531 65.1406 21.9531H62.8594C61.9427 21.9531 61.1823 21.6667 60.5781 21.0938C59.974 20.5208 59.6719 19.7969 59.6719 18.9219C59.6719 18.4219 59.8073 17.8385 60.0781 17.1719L62.2031 11.9531C62.7969 10.5052 63.6094 9.78125 64.6406 9.78125C65.0885 9.78125 65.4688 9.92708 65.7812 10.2188C66.0938 10.5 66.25 10.849 66.25 11.2656C66.25 11.5781 66.1667 11.9375 66 12.3438L64.1875 16.7812L64.0156 17.25C63.9219 17.5208 63.8698 17.724 63.8594 17.8594C63.8385 18.3281 64.1406 18.5625 64.7656 18.5625C66.0573 18.5625 66.9167 18.0417 67.3438 17L69.2969 12.1875C69.8802 10.7292 70.7031 10 71.7656 10C72.2031 10 72.5781 10.1458 72.8906 10.4375C73.2031 10.7292 73.3594 11.0781 73.3594 11.4844C73.3594 11.8073 73.224 12.3073 72.9531 12.9844L70.6875 18.5469Z" fill="#8F158F"/>
<path d="M82.8906 10H83.375C84.6979 10 85.3594 10.4635 85.3594 11.3906C85.3594 12.026 85.125 12.5208 84.6562 12.875C84.1875 13.2292 83.5417 13.4062 82.7188 13.4062H81.5781L79.4844 18.5469H81.2344C82.5573 18.5469 83.2188 19.0104 83.2188 19.9375C83.2188 20.5729 82.9844 21.0677 82.5156 21.4219C82.0573 21.776 81.4115 21.9531 80.5781 21.9531H77.7812C76.9896 21.9531 76.3594 21.7708 75.8906 21.4062C75.4323 21.0417 75.2031 20.5469 75.2031 19.9219C75.2031 19.5365 75.2969 19.1094 75.4844 18.6406L75.7812 17.9531L77.625 13.4062H77.3906C76.224 13.4062 75.6406 12.9531 75.6406 12.0469C75.6406 11.401 75.8698 10.901 76.3281 10.5469C76.7969 10.1823 77.4479 10 78.2812 10H79L79.8281 7.95312L80 7.53125C80.4896 6.375 81.2604 5.79688 82.3125 5.79688C82.7396 5.79688 83.1042 5.94271 83.4062 6.23438C83.7188 6.51562 83.875 6.85938 83.875 7.26562C83.875 7.66146 83.7396 8.16146 83.4688 8.76562L82.8906 10Z" fill="#8F158F"/>
<path d="M93.625 22.5938H95.4375C96.7604 22.5938 97.4219 23.0573 97.4219 23.9844C97.4219 24.6198 97.1875 25.1146 96.7188 25.4688C96.2604 25.8229 95.6146 26 94.7812 26H92.25C91.9479 26.8958 91.401 28.0833 90.6094 29.5625C89.2344 32.1667 87.2344 33.4688 84.6094 33.4688C83.0156 33.4688 81.6771 32.9688 80.5938 31.9688C79.5104 30.9688 78.9688 29.7292 78.9688 28.25C78.9688 27.2188 79.2656 26.2552 79.8594 25.3594C80.4427 24.474 81.2135 23.8073 82.1719 23.3594C83.276 22.849 84.9062 22.5938 87.0625 22.5938H89.6094L90.0625 21.4688C89.2917 21.7917 88.5833 21.9531 87.9375 21.9531C86.8229 21.9531 85.9167 21.6719 85.2188 21.1094C84.5312 20.5365 84.1875 19.7969 84.1875 18.8906C84.1875 18.3385 84.4115 17.5104 84.8594 16.4062L86.5625 12.2031L86.7344 11.7656C87.2344 10.5885 88.0104 10 89.0625 10C89.5208 10 89.901 10.1458 90.2031 10.4375C90.5156 10.7292 90.6719 11.099 90.6719 11.5469C90.6719 11.849 90.5365 12.3385 90.2656 13.0156L88.7344 16.75C88.4948 17.3542 88.3698 17.7448 88.3594 17.9219C88.3281 18.4323 88.651 18.6875 89.3281 18.6875C89.8073 18.6875 90.2969 18.5469 90.7969 18.2656C91.2969 17.9844 91.6146 17.6667 91.75 17.3125L93.8438 12.2031L94 11.7656C94.4896 10.5885 95.2656 10 96.3281 10C96.7865 10 97.1667 10.151 97.4688 10.4531C97.7812 10.7448 97.9375 11.1094 97.9375 11.5469C97.9375 11.849 97.8594 12.1979 97.7031 12.5938L97.5156 13.0156L93.625 22.5938ZM88.5156 26H86.3281C83.9323 26 82.7344 26.75 82.7344 28.25C82.7344 28.7812 82.901 29.2083 83.2344 29.5312C83.5573 29.8542 83.9948 30.0156 84.5469 30.0156C85.3073 30.0156 85.9792 29.7188 86.5625 29.125C87.1562 28.5312 87.8073 27.4896 88.5156 26Z" fill="#8F158F"/>
<path d="M101.812 20.7344L97.7344 30.7656C97.1719 32.151 96.349 32.8438 95.2656 32.8438C94.849 32.8438 94.4948 32.7031 94.2031 32.4219C93.901 32.151 93.75 31.8229 93.75 31.4375C93.75 31.1146 93.8802 30.625 94.1406 29.9688L101.672 11.4062C102.057 10.4688 102.724 10 103.672 10C104.328 10 104.849 10.3125 105.234 10.9375C105.964 10.1667 106.854 9.78125 107.906 9.78125C109 9.78125 109.88 10.1979 110.547 11.0312C111.224 11.8542 111.562 12.9427 111.562 14.2969C111.562 16.8594 110.766 18.9479 109.172 20.5625C108.651 21.0938 108.115 21.4583 107.562 21.6562C107.01 21.8542 106.24 21.9531 105.25 21.9531C104.188 21.9531 103.453 21.8802 103.047 21.7344C102.651 21.5885 102.24 21.2552 101.812 20.7344ZM103.094 17.5469C103.354 18.0052 103.599 18.3021 103.828 18.4375C104.068 18.5729 104.443 18.6406 104.953 18.6406C105.693 18.6406 106.271 18.3646 106.688 17.8125C107.531 16.6979 107.953 15.5521 107.953 14.375C107.953 13.3646 107.474 12.8594 106.516 12.8594C105.464 12.8594 104.708 13.4688 104.25 14.6875C104.198 14.8229 104.156 14.9375 104.125 15.0312L103.094 17.5469Z" fill="#8F158F"/>
<path d="M123.062 18.5469H124.781C126.094 18.5469 126.75 19.0052 126.75 19.9219C126.75 20.5573 126.516 21.0573 126.047 21.4219C125.578 21.776 124.932 21.9531 124.109 21.9531H122.109C121.214 21.9531 120.604 21.6042 120.281 20.9062C119.5 21.6042 118.745 21.9531 118.016 21.9531H116.234C115.089 21.9531 114.161 21.5469 113.453 20.7344C112.755 19.9115 112.406 18.8385 112.406 17.5156C112.406 15.5156 113.094 13.7292 114.469 12.1562C115.854 10.5729 117.417 9.78125 119.156 9.78125C120.49 9.78125 121.464 10.2448 122.078 11.1719C122.599 10.3906 123.281 10 124.125 10C124.583 10 124.964 10.1458 125.266 10.4375C125.578 10.7292 125.734 11.0885 125.734 11.5156C125.734 11.8073 125.651 12.1562 125.484 12.5625L125.312 12.9844L123.062 18.5469ZM117.391 18.625H117.781C118.635 18.625 119.203 18.276 119.484 17.5781L120.578 14.875C120.724 14.5208 120.797 14.224 120.797 13.9844C120.797 13.7031 120.656 13.4583 120.375 13.25C120.104 13.0417 119.776 12.9375 119.391 12.9375C118.63 12.9375 117.891 13.3802 117.172 14.2656C116.453 15.151 116.094 16.0677 116.094 17.0156C116.094 18.0885 116.526 18.625 117.391 18.625Z" fill="#8F158F"/>
<path d="M131.547 18.5469H133.188C134.51 18.5469 135.172 19.0104 135.172 19.9375C135.172 20.5729 134.938 21.0677 134.469 21.4219C134.01 21.776 133.365 21.9531 132.531 21.9531H129.719C128.948 21.9531 128.339 21.7708 127.891 21.4062C127.443 21.0417 127.219 20.5521 127.219 19.9375C127.219 19.6146 127.37 19.0781 127.672 18.3281L134.156 2.375C134.635 1.20833 135.401 0.625 136.453 0.625C136.891 0.625 137.26 0.770833 137.562 1.0625C137.875 1.35417 138.031 1.70312 138.031 2.10938C138.031 2.42188 137.953 2.77604 137.797 3.17188L131.547 18.5469Z" fill="#8F158F"/>
<path d="M146.531 18.5469H148.25C149.562 18.5469 150.219 19.0052 150.219 19.9219C150.219 20.5573 149.984 21.0573 149.516 21.4219C149.047 21.776 148.401 21.9531 147.578 21.9531H145.578C144.682 21.9531 144.073 21.6042 143.75 20.9062C142.969 21.6042 142.214 21.9531 141.484 21.9531H139.703C138.557 21.9531 137.63 21.5469 136.922 20.7344C136.224 19.9115 135.875 18.8385 135.875 17.5156C135.875 15.5156 136.562 13.7292 137.938 12.1562C139.323 10.5729 140.885 9.78125 142.625 9.78125C143.958 9.78125 144.932 10.2448 145.547 11.1719C146.068 10.3906 146.75 10 147.594 10C148.052 10 148.432 10.1458 148.734 10.4375C149.047 10.7292 149.203 11.0885 149.203 11.5156C149.203 11.8073 149.12 12.1562 148.953 12.5625L148.781 12.9844L146.531 18.5469ZM140.859 18.625H141.25C142.104 18.625 142.672 18.276 142.953 17.5781L144.047 14.875C144.193 14.5208 144.266 14.224 144.266 13.9844C144.266 13.7031 144.125 13.4583 143.844 13.25C143.573 13.0417 143.245 12.9375 142.859 12.9375C142.099 12.9375 141.359 13.3802 140.641 14.2656C139.922 15.151 139.562 16.0677 139.562 17.0156C139.562 18.0885 139.995 18.625 140.859 18.625Z" fill="#8F158F"/>
<path d="M159.781 21.9531H155.25C153.948 21.9531 152.885 21.4948 152.062 20.5781C151.25 19.6615 150.844 18.474 150.844 17.0156C150.844 15.0677 151.516 13.375 152.859 11.9375C154.203 10.5 155.781 9.78125 157.594 9.78125C158.823 9.78125 159.823 10.125 160.594 10.8125C161.365 11.5 161.75 12.3958 161.75 13.5C161.75 14.2708 161.557 14.9062 161.172 15.4062C160.786 15.8958 160.292 16.1406 159.688 16.1406C158.729 16.1406 158.25 15.6927 158.25 14.7969C158.25 14.6615 158.25 14.5469 158.25 14.4531C158.26 14.3385 158.266 14.2292 158.266 14.125C158.266 13.3958 157.906 13.0312 157.188 13.0312C156.51 13.0312 155.891 13.3906 155.328 14.1094C154.776 14.8281 154.5 15.6302 154.5 16.5156C154.5 17.2552 154.724 17.7812 155.172 18.0938C155.63 18.3958 156.401 18.5469 157.484 18.5469H160.438C161.76 18.5469 162.422 19.0104 162.422 19.9375C162.422 20.5625 162.182 21.0573 161.703 21.4219C161.234 21.776 160.594 21.9531 159.781 21.9531Z" fill="#8F158F"/>
<path d="M166.766 17.375C166.766 18.1562 167.354 18.5469 168.531 18.5469H173.172C174.484 18.5469 175.141 19.0104 175.141 19.9375C175.141 20.5729 174.906 21.0677 174.438 21.4219C173.979 21.776 173.333 21.9531 172.5 21.9531H168.078C166.432 21.9531 165.177 21.5469 164.312 20.7344C163.458 19.9219 163.031 18.7344 163.031 17.1719C163.031 15.1615 163.708 13.4271 165.062 11.9688C166.427 10.5104 168.047 9.78125 169.922 9.78125C171.286 9.78125 172.38 10.1406 173.203 10.8594C174.036 11.5677 174.453 12.5052 174.453 13.6719C174.453 15.0781 173.88 16.1198 172.734 16.7969C172.099 17.1823 171.151 17.375 169.891 17.375H166.766ZM167.516 14.5312H169.234C170.349 14.5312 170.891 14.2865 170.859 13.7969C170.828 13.2448 170.469 12.9688 169.781 12.9688C168.823 12.9688 168.068 13.4896 167.516 14.5312Z" fill="#8F158F"/>
</g>
</g>
</svg>
